<svg xmlns="http://www.w3.org/2000/svg" width="165.597" height="166.259" viewBox="0 0 165.597 166.259">
  <g id="Group_308" data-name="Group 308" transform="translate(-548.87 -1241.695)">
    <path id="Path_9046" data-name="Path 9046" d="M671.5,1403.869l1.221,1.084a27.9,27.9,0,0,0,18.694,7.324c8.466,0,16.4-3.939,22.332-11.094a3.139,3.139,0,0,0-.415-4.417,3.081,3.081,0,0,0-2-.723,3.134,3.134,0,0,0-2.417,1.133c-4.712,5.688-10.929,8.823-17.5,8.823s-12.783-3.135-17.5-8.82a3.141,3.141,0,0,0-4.835,0c-4.708,5.685-10.922,8.82-17.5,8.82s-12.786-3.135-17.5-8.82a3.138,3.138,0,0,0-4.832,0c-4.714,5.685-10.929,8.82-17.5,8.82s-12.782-3.135-17.5-8.82a3.135,3.135,0,0,0-4.829,0c-4.718,5.685-10.932,8.82-17.5,8.82s-12.786-3.135-17.5-8.823a3.133,3.133,0,0,0-2.418-1.133,3.136,3.136,0,0,0-2.411,5.14c5.928,7.155,13.86,11.094,22.329,11.094a27.887,27.887,0,0,0,18.691-7.324l1.223-1.084,1.22,1.084a27.521,27.521,0,0,0,37.389,0l1.221-1.084,1.22,1.084a27.524,27.524,0,0,0,37.392,0Z" transform="translate(0 -4.322)" fill="#ff6b00"/>
    <path id="Path_9047" data-name="Path 9047" d="M627.134,1317.5a3.138,3.138,0,1,0,3.139,3.138,3.143,3.143,0,0,0-3.139-3.138" transform="translate(-2.104 -2.123)" fill="#ff6b00"/>
    <path id="Path_9048" data-name="Path 9048" d="M606.646,1317.5a3.138,3.138,0,1,0,3.138,3.138,3.143,3.143,0,0,0-3.138-3.138" transform="translate(-1.53 -2.123)" fill="#ff6b00"/>
    <path id="Path_9049" data-name="Path 9049" d="M586.157,1317.5a3.138,3.138,0,1,0,3.138,3.138,3.143,3.143,0,0,0-3.138-3.138" transform="translate(-0.956 -2.123)" fill="#ff6b00"/>
    <path id="Path_9050" data-name="Path 9050" d="M691.413,1381.4a27.908,27.908,0,0,1-18.694-7.318L671.5,1373l-1.221,1.081a27.537,27.537,0,0,1-37.392,0l-1.22-1.084-1.22,1.084a27.533,27.533,0,0,1-37.389,0l-1.22-1.081-1.221,1.084a27.906,27.906,0,0,1-18.694,7.318c-8.469,0-16.4-3.939-22.329-11.091a3.136,3.136,0,0,1,.412-4.42,3.076,3.076,0,0,1,1.99-.717,3.175,3.175,0,0,1,1.058.182l2.453.866v-24.645H552.13a3.219,3.219,0,0,1-3.2-2.516,3.144,3.144,0,0,1,3.077-3.764h10.137v-59.929a3.135,3.135,0,0,1,3.135-3.135h16.6a3.137,3.137,0,0,1,3.016,2.274l5.987,20.959h11.089V1247.97H598.6a3.222,3.222,0,0,1-3.2-2.511,3.143,3.143,0,0,1,3.076-3.765h39.7a3.224,3.224,0,0,1,3.2,2.511,3.143,3.143,0,0,1-3.077,3.765h-3.5v20.94h42.847l11.819-9.284a3.14,3.14,0,0,1,4.156.243l9.959,9.963c.594.59.919,11.1.919,2.219v59.934a3.138,3.138,0,0,1-3.139,3.137h0a3.137,3.137,0,0,1-3.138-3.137v-51.4l-46.1,54.23,1.443,1.188a3.142,3.142,0,0,1,1.146,2.425v36.586l2.33-.642a24.11,24.11,0,0,0,12.029-8.076,3.124,3.124,0,0,1,2.414-1.132m0,0a3.131,3.131,0,0,1,2.421,1.135c4.718,5.688,10.932,8.823,17.5,8.823,11.073,0,17.1-8.343,17.5-8.826a3.134,3.134,0,0,1,2.418-1.132,3.077,3.077,0,0,1,2,.72,3.139,3.139,0,0,1,.415,4.42c-5.935,7.152-13.866,11.091-22.332,11.091m-99.575-16.231a3.133,3.133,0,0,1,2.417,1.132c4.718,5.691,10.932,8.826,17.5,8.826s12.779-3.135,17.5-8.823a3.138,3.138,0,0,1,4.829,0,24.131,24.131,0,0,0,12.032,8.076l2.33.642v-33.445H561.786V1372.5l1.038.5a20.775,20.775,0,0,0,9.1,2.122c6.565,0,12.779-3.135,17.5-8.823a3.117,3.117,0,0,1,2.414-1.135m-23.413-29.87h73.383V1301.74H568.425Zm79.658-35.169v29.765l49.019-57.672-5.941-5.942Zm-13.275-4.664h9.05l25.807-20.275H634.808Zm-22.183,0h15.9v-16.1Zm-44.2,0h15.933l-4.845-16.958H568.425Zm39.83-4.5,19-19.246-19-19.237Zm20.275-26.885v-16.1h-15.9Z" fill="#003c34"/>
    <rect id="Rectangle_763" data-name="Rectangle 763" width="6.276" height="10.769" rx="3.138" transform="translate(698.231 1338.909)" fill="#ff6b00"/>
  </g>
</svg>
